<svg width="86" height="86" viewBox="0 0 86 86" fill="none" xmlns="http://www.w3.org/2000/svg">
<path d="M57.3933 81.8253H78.688C80.892 81.8253 82.6747 80.036 82.6667 77.832L82.5253 39.5667C82.52 38.0973 81.6187 36.1173 80.516 35.148L45.752 4.60267C44.096 3.148 41.404 3.14267 39.7413 4.59067L4.664 35.156C3.556 36.1213 2.66133 38.0973 2.66666 39.5667L2.808 77.832C2.816 80.036 4.612 81.8253 6.816 81.8253H28.112C30.316 81.8253 32.104 80.036 32.104 77.832V60.5293C32.104 59.06 33.2973 57.868 34.7667 57.868H50.7387C52.2067 57.868 53.4 59.06 53.4 60.5293V77.832C53.4 80.036 55.1893 81.8253 57.3933 81.8253Z" fill="white"/>
</svg>
