<svg width="29" height="29" viewBox="0 0 29 29" fill="none" xmlns="http://www.w3.org/2000/svg">
<path d="M26.1573 19.6844L17.2185 14.5236L26.1777 9.35101C26.8282 8.97577 27.0503 8.14475 26.6751 7.49426C26.2998 6.84289 25.4679 6.62075 24.8183 6.99688L15.8381 12.1816V1.8125C15.8381 1.06201 15.2292 0.453125 14.4788 0.453125C13.7283 0.453125 13.1194 1.06202 13.1194 1.8125V12.157L4.18167 6.99688C3.53296 6.62075 2.70016 6.84289 2.32492 7.49426C1.94968 8.14474 2.17181 8.97577 2.8223 9.35101L11.7815 14.5236L2.84265 19.6844C2.19217 20.0596 1.97003 20.8906 2.34527 21.5411C2.59661 21.9775 3.05417 22.2208 3.52322 22.2208C3.7542 22.2208 3.98785 22.1624 4.20202 22.0385L13.1194 16.8901V27.1875C13.1194 27.938 13.7283 28.5469 14.4787 28.5469C15.2292 28.5469 15.8381 27.938 15.8381 27.1875V16.8656L24.798 22.0385C25.0121 22.1624 25.2458 22.2208 25.4768 22.2208C25.9458 22.2208 26.4034 21.9775 26.6547 21.5411C27.03 20.8907 26.8078 20.0596 26.1573 19.6844Z" fill="white"/>
</svg>
